<svg xmlns="http://www.w3.org/2000/svg" xmlns:xlink="http://www.w3.org/1999/xlink" style="enable-background:new 0 0 1920 135.7" id="Layer_1" x="0" y="0" version="1.1" viewBox="0 0 1920 135.7" xml:space="preserve"><style type="text/css">.st0{fill:url(#SVGID_1_)}.st1{fill:none;stroke:#fff;stroke-width:4.1927;stroke-miterlimit:10}.st2{fill:#fff}.st3{fill:url(#SVGID_2_)}.st4{stroke:url(#SVGID_3_)}.st4,.st5,.st6,.st7{fill:none;stroke-width:4.1927;stroke-miterlimit:10}.st5{stroke:url(#SVGID_4_)}.st6{stroke:url(#SVGID_5_)}.st7{stroke:url(#SVGID_6_)}</style><title>bg-curve1</title><linearGradient id="SVGID_1_" x1="400.735" x2="1518.265" y1="775.115" y2="-231.115" gradientTransform="matrix(1 0 0 1 0.5 -214.5)" gradientUnits="userSpaceOnUse"><stop style="stop-color:#f83600" offset="0"/><stop style="stop-color:#fe8c00" offset="1"/></linearGradient><path d="M0,0h1920v115c-144.7-38.8-293-62.4-442.5-70.5c-77.6-4.2-135.6-3.1-184.5,0.6	c-121.7,9.1-159.8,24.7-235.3,28.3c-126,6-147.6-35.1-284.7-55c-134.4-19.5-176.2,11-596.7,72.3C101.1,101.7,39.5,109.9,0,115V0z" class="st0"/><g><path d="M144.1,94l0.4-32.6c0-3.4,3-6.1,6.5-6.1l34.5,0.4c3.6,0,6.4,2.8,6.4,6.2l-0.4,32.6c0,3.4-3,6.1-6.5,6 l-34.5-0.4C146.9,100.1,144,97.4,144.1,94z" class="st1"/><g><path d="M171.4,57.5c-3.2-0.3-6.8-0.6-10.1,0l10.1,0.1C171.5,57.6,171.4,57.5,171.4,57.5z" class="st2"/><linearGradient id="SVGID_2_" x1="142.025" x2="193.641" y1="95.7" y2="95.7" gradientUnits="userSpaceOnUse"><stop style="stop-color:#f83600" offset="0"/><stop style="stop-color:#fe8c00" offset="1"/></linearGradient><path d="M189.4,89.3l-0.1,5.2c0,2.2-2,4-4.4,4c0,0,0,0-0.1,0l-34.5-0.4c-1.2,0-2.4-0.5-3.2-1.3 c-0.7-0.8-1.1-1.7-1.1-2.7l0-0.4c-1.4,0.4-2.8,0.8-4.2,1.1c0.2,1.8,1,3.5,2.3,4.9c1.6,1.6,3.8,2.6,6.1,2.6l34.5,0.4h0.1 c4.7,0,8.5-3.6,8.6-8.1l0.1-5.8C192.2,88.9,190.8,89.1,189.4,89.3z" class="st3"/></g><linearGradient id="SVGID_3_" x1="627.322" x2="666.299" y1="124.32" y2="89.225" gradientUnits="userSpaceOnUse"><stop style="stop-color:#f83600" offset="0"/><stop style="stop-color:#fe8c00" offset="1"/></linearGradient><path d="M638.3,133.3l-20.7-26.1c-2.1-2.7-1.6-6.5,1.3-8.6L646.3,79c2.9-2,6.9-1.5,9.1,1.2l20.7,26.1 c2.1,2.7,1.6,6.5-1.3,8.6l-27.5,19.6C644.5,136.6,640.4,136,638.3,133.3z" class="st4"/><linearGradient id="SVGID_4_" x1="801.143" x2="831.785" y1="75.192" y2="47.602" gradientUnits="userSpaceOnUse"><stop style="stop-color:#f83600" offset="0"/><stop style="stop-color:#fe8c00" offset="1"/></linearGradient><path d="M821.2,77.7l-17.4-4.4c-3.4-0.9-5.5-4.2-4.6-7.5l4.6-16.4c0.9-3.3,4.5-5.2,7.9-4.3l17.4,4.4 c3.4,0.9,5.5,4.2,4.6,7.5l-4.6,16.4C828.2,76.6,824.6,78.6,821.2,77.7z" class="st5"/><linearGradient id="SVGID_5_" x1="378.98" x2="406.164" y1="102.006" y2="77.53" gradientUnits="userSpaceOnUse"><stop style="stop-color:#f83600" offset="0"/><stop style="stop-color:#fe8c00" offset="1"/></linearGradient><path d="M389,106.3L375.6,95c-2.7-2.3-2.9-6.1-0.5-8.6l12-12.7c2.4-2.5,6.5-2.7,9.1-0.5l13.4,11.3 c2.7,2.3,2.9,6.1,0.5,8.6l-12,12.7C395.7,108.4,391.6,108.6,389,106.3z" class="st6"/><path d="M265.4,56.7L254,56.1c-3.6-0.2-6.3-3.1-6.1-6.4l0.6-10.9c0.2-3.4,3.2-6,6.8-5.8l11.5,0.6 c3.6,0.2,6.3,3.1,6.1,6.4l-0.6,10.9C272,54.3,269,56.9,265.4,56.7z" class="st1"/><linearGradient id="SVGID_6_" x1="741.479" x2="765.781" y1="88.866" y2="66.984" gradientUnits="userSpaceOnUse"><stop style="stop-color:#f83600" offset="0"/><stop style="stop-color:#fe8c00" offset="1"/></linearGradient><path d="M758.7,89.8l-11.5-0.6c-3.6-0.2-6.3-3.1-6.1-6.4l0.6-10.9c0.2-3.4,3.2-6,6.8-5.8l11.5,0.6 c3.6,0.2,6.3,3.1,6.1,6.4L765.5,84C765.3,87.3,762.3,89.9,758.7,89.8z" class="st7"/><path d="M918.4,101.6l-11.5-0.6c-3.6-0.2-6.3-3.1-6.1-6.4l0.6-10.9c0.2-3.4,3.2-6,6.8-5.8l11.5,0.6 c3.6,0.2,6.3,3.1,6.1,6.4l-0.6,10.9C925,99.2,922,101.8,918.4,101.6z" class="st1"/></g></svg>